<svg id="Calque_1" data-name="Calque 1" xmlns="http://www.w3.org/2000/svg" viewBox="0 0 242.5 279.26"><defs><style>.cls-1{fill:#007ef5;}.cls-2{fill:#00c6fe;}.cls-3{fill:#007aee;}.cls-4{fill:#00c2fe;}.cls-5{fill:#00c9fe;}.cls-6{fill:#007fef;}.cls-7{fill:#00bffe;}.cls-8{fill:#0075ed;}.cls-9{fill:#00b6fd;}.cls-10{fill:#0085f0;}.cls-11{fill:#0084f5;}.cls-12{fill:#0081f5;}.cls-13{fill:#00b2fd;}.cls-14{fill:#00abfd;}.cls-15{fill:#009adb;}.cls-16{fill:#00b9fd;}.cls-17{fill:#0078ee;}.cls-18{fill:#00a5fc;}.cls-19{fill:#008af1;}.cls-20{fill:#008df0;}.cls-21{fill:#01bcfe;}.cls-22{fill:#0093f1;}.cls-23{fill:#01aae0;}.cls-24{fill:#0082f5;}.cls-25{fill:#009ffc;}.cls-26{fill:#029bfb;}.cls-27{fill:#019cf3;}.cls-28{fill:#0198f2;}.cls-29{fill:#04a5f4;}.cls-30{fill:#005aea;}.cls-31{fill:#0072d3;}.cls-32{fill:#0088da;}.cls-33{fill:#0264eb;}.cls-34{fill:#0162c5;}.cls-35{fill:#008bf6;}.cls-36{fill:#0087f6;}.cls-37{fill:#00affd;}.cls-38{fill:#0384f5;}.cls-39{fill:#0076f4;}.cls-40{fill:#0095d8;}.cls-41{fill:#009ddc;}.cls-42{fill:#006ecb;}.cls-43{fill:#00a4df;}.cls-44{fill:#00a1dd;}.cls-45{fill:#0079d0;}.cls-46{fill:#008ed6;}.cls-47{fill:#0090f7;}.cls-48{fill:#0087d3;}.cls-49{fill:#0094f6;}.cls-50{fill:#0081d1;}.cls-51{fill:#0097f7;}.cls-52{fill:#007bcf;}.cls-53{fill:#019df8;}.cls-54{fill:#0376cd;}</style></defs><title>drop</title><path class="cls-1" d="M1279,939.11c-11.7,10.21-25.36,16.81-40.15,21-35.31,10-68.62,5.23-99.81-14.13a7.51,7.51,0,0,1-1.06-1c-1.71-2.9-.35-4.28,2.45-4.94a27.79,27.79,0,0,1,6.43-.51q34.33,0,68.66,0c3.32,0,6.58.09,9.61,1.91a7.31,7.31,0,0,0,5.29.89c6,.72,11.86,2.3,18,2.54,10.09.38,19.16-2.62,28.17-6.4A2.56,2.56,0,0,1,1279,939.11Z" transform="translate(-1083.43 -685.98)"/><path class="cls-2" d="M1145.13,734.13a213,213,0,0,1,19-19c5.38-3.2,11.46-3.36,17.39-3.49,13.29-.29,26.59-.1,39.88-.09a40.63,40.63,0,0,1,10.34,1.5c2.71.71,4.88,2.08,5.76,4.94,1.78,7.45-1.83,13.38-5.42,19.33a27.31,27.31,0,0,1-4.75,5.58c-1.21,1-2.45,2.34-4.29,1.08a1.69,1.69,0,0,1-.13-1c2.16-5.95,2-6.37-4.93-6.41q-32.91-.15-65.84,0C1149.51,736.63,1146.74,737,1145.13,734.13Z" transform="translate(-1083.43 -685.98)"/><path class="cls-3" d="M1307,908.19a51.6,51.6,0,0,1-11,14.93c-.09-.14-.16-.29-.25-.43-1.39-2.06,2.57-4.71-.3-6.2-2-1-4.57.12-6.89.12q-39.19,0-78.37,0c-3.33,0-6.65,0-10,.28a5.06,5.06,0,0,1-4.68-2.59c-.87-1.72-1.46-3.77-4-3.72a5,5,0,0,1-2.69-2.08c-2.5-3.25-5.77-5.77-8.39-8.89-.94-1.11-3.16-2.49-.42-4.15,5.74.7,10.92,3.44,16.7,4.24,6.64.92,13.16-.35,19.73,0,5.19.21,9.87-2.66,15.16-2.21,22.87,2,45.81.73,68.71,1.15a7.38,7.38,0,0,1,1.49.13C1309,900.37,1312,900,1307,908.19Z" transform="translate(-1083.43 -685.98)"/><path class="cls-4" d="M1145.13,734.13c2.25,1.15,4.62,1,7.1,1,22.33-.1,44.66,0,67,0a4.09,4.09,0,0,1,1,0c2.67.73,6.6-.1,7.74,2.18s-2.81,3.51-4.14,5.52a.84.84,0,0,0,.15,1.28c.64,1.55-.41,2.55-1.3,3.47-3.33,3.48-6.68,6.94-10.24,10.19-1.22,1.12-2.63,2.91-4.58.85,1.29-5.66,1.13-6-4.59-6-23.29.23-46.59-.69-69.88.49-2.06.11-4,0-5.29-2A167.67,167.67,0,0,1,1145.13,734.13Z" transform="translate(-1083.43 -685.98)"/><path class="cls-5" d="M1236.91,719.09c-2.23-6.09-8.08-5.62-12.55-5.78-15.31-.53-30.65-.35-46-.1-4.75.08-9.49,1.26-14.23,1.93,7.45-7.55,14.52-15.52,22.44-22.54,10.46-9.28,26.73-8.64,37.86.9a63.85,63.85,0,0,1,10.15,10.75c2.75,3,2.56,6.89,3.53,10.45C1238.23,716.3,1238.35,717.92,1236.91,719.09Z" transform="translate(-1083.43 -685.98)"/><path class="cls-6" d="M1307,908.19a2,2,0,0,0,0-.49c-.8-2.3,3.33-4.4,1.36-5.64a16.44,16.44,0,0,0-8.54-2c-17.6.11-35.2,0-52.81.12-5.61.05-11-2-16.7-1.15-3.24.46-6.6-.12-9.45,2.16-1.71,1.37-3.45-.54-5.21-.24a2.39,2.39,0,0,1,2-1.94c9.58-2.49,17.87-7.46,25.68-13.35a17.37,17.37,0,0,0,4.33-3.33,5.92,5.92,0,0,1,5.47-1.78c10,2.05,20.2.84,30.3,1.06,8.8.2,17.6,0,26.4.06,7.69.07,8.53,1.19,6.31,8.25a15.88,15.88,0,0,1-1.12,3.28A46.14,46.14,0,0,1,1307,908.19Z" transform="translate(-1083.43 -685.98)"/><path class="cls-7" d="M1128.09,751.12c3.73,2,7.45-.11,11.18-.09,21.73.13,43.46.05,65.19.08,2.42,0,5.26-.74,6.77,1.92s-2,3.33-2.62,5.19c-.07.23.21.57.32.86.57,3-1.94,3.8-3.75,5.1a15.91,15.91,0,0,1-4.55,1.83c-24.39,2.52-48.85,1.36-73.28,1.59a27.51,27.51,0,0,1-7-.41c-4.46-1.12-5.09-3.06-2.33-6.88A48.38,48.38,0,0,1,1128.09,751.12Z" transform="translate(-1083.43 -685.98)"/><path class="cls-8" d="M1279,939.11l-2,0c-10.43,4.77-21.23,7.3-32.82,6-13.16-1.44-24.74-6.1-34.1-15.68-1.34-1.38-3.1-2.73-2.06-5.14,1.32-1.9,3.23-2,5.32-2,23.81.33,47.61.61,71.42-.14a7.85,7.85,0,0,1,4.33.89c3.43,2,3.66,3.55.93,6.48-1.25,1.34-2.7,2.47-4,3.81C1284,935.56,1282.11,938.08,1279,939.11Z" transform="translate(-1083.43 -685.98)"/><path class="cls-9" d="M1094.14,795.12c-.12-.59.07-1,.7-1.06,1.38-1,1.51-2.7,2.1-4.14a10.2,10.2,0,0,1,3-5.83c3-3.82,6.91-4,11.5-3.83,20.7.82,41.43.22,62.14.35,3.43,0,6.53.61,8.94,3.26.48,1.85-.48,3.23-1.62,4.46-2.71,2.93-5.52,5.76-8.46,8.45-1.38,1.28-2.92,2.26-4.94,1.36-11.8-1-23.62-.3-35.42-.44-10.32-.13-20.64,0-31-.08C1098.63,797.59,1095.7,798.15,1094.14,795.12Z" transform="translate(-1083.43 -685.98)"/><path class="cls-10" d="M1315,893.18a36,36,0,0,1,.5-3.91c1.43-6.17,1.46-6.17-5.22-6.17h-44.25c-.82,0-1.66.06-2.48,0-7.22-.58-14.75-2.8-20.51,4a2,2,0,0,1,.59-2.6c3.52-3.36,6.17-7.49,9.72-10.82,2.4-.93,3.79-3.08,5.59-4.73,1.62-1.48,3.23-2.85,5.67-2.15a26.62,26.62,0,0,1,6.84-1.2c15.09-.11,30.17-.14,45.25,0,5.71.06,6.18.83,5.27,6.5C1320.51,879.42,1319,886.71,1315,893.18Z" transform="translate(-1083.43 -685.98)"/><path class="cls-11" d="M1117,927.22a19.11,19.11,0,0,1-5-5.19c-1.17-2.59-3.11-4.71-4.4-7.23-.91-1.8-2.07-3.51-.67-5.56,7.14,4.37,15,2.32,22.56,2.29,19.13-.06,38.28.8,57.39-.55,2.13-.83,3.27.76,4.7,1.83,3.41,2.56,5.73,6.4,9.71,8.28a56.72,56.72,0,0,1,13,13.3c-2.27,2.86-3.71.26-5.08-.95-2.91-2.59-5.42-5.68-9.39-6.79-23.7,0-47.39-.22-71.07.15C1124.82,926.86,1120.82,925.53,1117,927.22Z" transform="translate(-1083.43 -685.98)"/><path class="cls-12" d="M1201,926.09c4.07.45,6,3.94,8.77,6.19,1.17.94,1.78,3.67,4.23,1.84,5.93,2.52,11.28,6.13,17,9-2,2-4.78,1-5.9,0-2.94-2.6-6.15-2.09-9.38-2.09-23.9,0-47.8-.06-71.69.06-2.51,0-6.52-1.31-6,3.85-3.11-2.08-6.62-3.6-9.11-6.54-1.31-2-4.43-3.13-3.12-6.2,1.4-3.31,4.59-3.6,7.62-3.63,16.83-.15,33.65-.11,50.47,0C1189.75,928.66,1195.53,928.53,1201,926.09Z" transform="translate(-1083.43 -685.98)"/><path class="cls-13" d="M1094.14,795.12c1.94,1.3,4.15,1,6.29,1q31.39,0,62.78,0c2.09,0,4.44-.6,5.78,1.83-1.28,3.83-4.94,5.64-7.28,8.58a9.17,9.17,0,0,0-2.9,4.19,9.63,9.63,0,0,1-3.31,4.47c-2.51,1.21-3.6,5.18-7.42,3.85-.62-3.64,3.36-4.63,4.3-7.5-1.11-1.78-2.94-1-4.42-1-17.27-.14-34.53.16-51.79-.21-3-.07-4.7,1.08-5.76,3.68a10.27,10.27,0,0,1-2.13,3.9,1.13,1.13,0,0,1-1.48,0C1088,809.94,1091.07,802.53,1094.14,795.12Z" transform="translate(-1083.43 -685.98)"/><path class="cls-14" d="M1084.08,852.08c-.54-4.33-1.11-8.65-.07-13,.9-4.11.35-8.4,1.49-12.5.47-1.71.33-3.61,1.7-5,1.64-1,3.5-1,5.33-1,12.16,0,24.32,0,36.48,0a39.73,39.73,0,0,1,8.41,1.1c2.89.65,4.47,2.17,3.49,5.34-.87,4.86-5,7-8.25,9.86a34.53,34.53,0,0,0-5.35,5.72c-1.61,2-3.27,4.22-6.43,3.62-2.35-3.34-5.62-4-9.52-3.81-6.78.26-13.58.12-20.37.05-3.06,0-4.58,1.08-4.65,4.32C1086.3,848.73,1087,851.27,1084.08,852.08Z" transform="translate(-1083.43 -685.98)"/><path class="cls-15" d="M1295.19,765c2.28,2.06,4.71,4,5.81,7a3.61,3.61,0,0,1,.47,3.59c-1.54,2.08-3.82,1.65-5.93,1.71-21.7.65-43.41.13-65.12.29a60.32,60.32,0,0,0-8.92.46c-.6.23-1.34.62-1.88.31a36.66,36.66,0,0,1-13.85-13.89c-.11-.2.18-.57.39-.84a4.41,4.41,0,0,1,4-1,40.3,40.3,0,0,0,9.92.84c24,0,47.91,0,71.87,0C1293.4,763.32,1294.32,764.12,1295.19,765Z" transform="translate(-1083.43 -685.98)"/><path class="cls-16" d="M1182,784.94c-1.38-2.76-5-2.87-6.59-2.89-20.34-.35-40.68.06-61,0-5,0-10-1.43-14.37,2.09,1.79-3.17,3.33-6.5,6.14-9,1.92-3.84,5.27-4.54,9.2-4.53q27.69.1,55.38,0c6.92,0,13.86,0,20.31-3.37,2.41-1.26,4,.69,4.14,4.74a48.31,48.31,0,0,1-9.75,11.85C1184.5,784.66,1183.52,785.83,1182,784.94Z" transform="translate(-1083.43 -685.98)"/><path class="cls-17" d="M1286.08,933.36c.4-1.76,2-2.58,3-3.89.74-1,2.9-1.89,1.94-3-1.3-1.44-2.61-3.39-5.27-3.22-24.59,1.49-49.19,1.05-73.79.18-1.82-.06-2.63,1.17-4,1.63-4.43-1.57-7.8-4.21-9-9,2-1.22,4.15-1,6.3-1q40.92,0,81.83,0c2.47,0,5,.36,7.39-.66a4,4,0,0,1,4.62,1c1.54,1.66-.78,2.52-1.21,3.79s-2,2.26-1.9,4A34.5,34.5,0,0,1,1286.08,933.36Z" transform="translate(-1083.43 -685.98)"/><path class="cls-18" d="M1084.08,852.08c1.19-1,.91-2.42.91-3.73,0-7.86-1.13-7.23,7.7-7.25q9.48,0,19,0c4.2,0,9-1.16,10.27,5,.71,1.54-.33,2.54-1.22,3.41a56.3,56.3,0,0,0-10.94,14.36,3.07,3.07,0,0,1-1.85,1.51c-1.66-1.32-3.22-2.07-5.64-1.4a16.85,16.85,0,0,1-9.38-.29c-2.88-.88-3.92.27-4.08,3.13-.1,1.84,1.54,4.47-1.77,5.28A61.71,61.71,0,0,1,1084.08,852.08Z" transform="translate(-1083.43 -685.98)"/><path class="cls-19" d="M1322,872.12c.55-3.79-.8-5.19-4.89-5.12-15.12.24-30.24.09-45.37.1-2,0-3.92-.16-5.67,1.26-1.48,1.2-2.38,0-3.07-1.27a22.78,22.78,0,0,1,12.85-12.8c14.14-1.23,28.3-.84,42.44-.25,5.3.23,6.36,2.12,5.88,8.12C1323.81,865.56,1323.85,869.05,1322,872.12Z" transform="translate(-1083.43 -685.98)"/><path class="cls-20" d="M1324.17,862.16c.06-5-2.26-7.19-7.43-7-13.5.41-27-.88-40.53.65-.37,0-.81-.46-1.22-.7-.55-1.33.24-2.26,1-3.09,3.53-3.74,7.16-7.4,10.92-10.92a4.53,4.53,0,0,1,4.07-1.42c7.76.74,15.54,1,23.32,1,10.78.05,12.16,1.67,10.77,12.76C1325,856.34,1325.32,859.33,1324.17,862.16Z" transform="translate(-1083.43 -685.98)"/><path class="cls-21" d="M1194,772.8a10.8,10.8,0,0,0,.32-3.39,2,2,0,0,0-2.7-1.47,36.86,36.86,0,0,1-15.76,4.15c-20.42,0-40.84.08-61.25-.07-3.39,0-6.17.64-8.47,3.09,2.95-5.75,7.52-10.21,11.93-14.8-1.55,3.86-.56,5.71,3.65,5.73,21.58.1,43.16.41,64.72-.23,5-.15,10.07-2.11,15.27-.72A8.81,8.81,0,0,1,1194,772.8Z" transform="translate(-1083.43 -685.98)"/><path class="cls-22" d="M1325.1,853.41c0-.83-.07-1.65-.1-2.47-.35-8.36-.87-9.05-9.16-8.78-7.15.22-14.26-1-21.42-.28a5.45,5.45,0,0,1-4.43-1.8,1.32,1.32,0,0,1-.26-1.28c3.49-3.93,6.18-8.51,9.82-12.32,6.73-3.52,19.78-5.46,24.69.54C1325.68,835.78,1326.75,844.55,1325.1,853.41Z" transform="translate(-1083.43 -685.98)"/><path class="cls-23" d="M1295.19,765l-2.19-.93c-4.84-2.44-7.64-7.14-11.67-10.48-1.51-1.57-3.08-3.07-4.69-4.54-7.67-10.83-18-14.9-31.07-12.68a24.7,24.7,0,0,1-6.48-.08c-2.15-.21-4-.86-4-3.49,1.79-6.12,3.57-12.24,2-18.71q-1.21-4.93-2.42-9.87a22.7,22.7,0,0,1,2.34,1.76q27.61,27.57,55.2,55.2C1293.29,762.36,1294.79,763.27,1295.19,765Z" transform="translate(-1083.43 -685.98)"/><path class="cls-24" d="M1201,926.09c-2.17,3.78-5.86,4-9.57,4q-27.26,0-54.5,0c-1,0-2,0-3,0-2.68-.05-5.7-.32-7.24,2.25s1.74,4,2.22,6.13a59.6,59.6,0,0,1-12-11.25,4,4,0,0,1,5.43-2.78c3.17,1.89,6.12.56,9.08.57,22.64.07,45.29-.06,67.93-.21C1200.55,924.79,1200.85,925.19,1201,926.09Z" transform="translate(-1083.43 -685.98)"/><path class="cls-25" d="M1087.05,872.08c2.13-1.79.77-4.23.51-6-.74-4.82,2.19-4.6,4.9-3.9,4,1,7.84,1.64,11.76-.31,3.53-1.76,2.58,2,3.73,3.21-.49,6.55-2.85,12.66-4.6,18.9-1.5.82-1.92-.66-2.74-1.31-4.31-3.44-7-.35-9.71,2.46A42.91,42.91,0,0,1,1087.05,872.08Z" transform="translate(-1083.43 -685.98)"/><path class="cls-26" d="M1090.9,885.14c.67-4.09,2.74-5.48,7.14-5.26,3.42.16,3.78,2.24,4.9,4.21,1.84,1.66,1.41,3.89,1.4,5.95,0,4.08,0,8.14,1.36,12.06a18,18,0,0,1,.51,2.29c.47,1.87.43,3.82.78,5.71.55,4.45,4.66,7.4,5,11.93A105.13,105.13,0,0,1,1090.9,885.14Z" transform="translate(-1083.43 -685.98)"/><path class="cls-27" d="M1318,803.08a49.89,49.89,0,0,1,4.79,17c-4-6.21-9.74-5-15.55-3.69a2.51,2.51,0,0,1-2.76-.57c-1.18-3.32.21-6.29,1.21-9.32,1.69-3.1.63-6.47.94-9.71.21-2.08-.26-4.57,2.45-5.35s3.61,1.64,4.67,3.42a38.92,38.92,0,0,0,2.27,3.23l0,0C1316.8,799.69,1317.06,801.53,1318,803.08Z" transform="translate(-1083.43 -685.98)"/><path class="cls-28" d="M1305,816.09c4-2.4,8.58-2,12.94-2.31s2.9,4.46,4.92,6.28c1.56,2.1.88,4.65,1.41,7-5-1.61-9.78-3.84-15.5-2.12-2.81.85-5.85,1.33-8.74,2.2-.89-2.11.76-3.63,1.23-5.43C1302.52,819.84,1301.78,816.64,1305,816.09Z" transform="translate(-1083.43 -685.98)"/><path class="cls-29" d="M1316.06,798.07a11.3,11.3,0,0,1-4.33-4c-.61-.88-.45-2.33-2.21-1.85-1.52.42-1.38,1.59-1.53,2.75-.5,4,1.14,8.24-1,12.13-2.55-3.76-.83-8-1.38-12a66.87,66.87,0,0,0-2.73-13.78,46.48,46.48,0,0,1-1.83-6.24c0-1,0-2,0-3A79.23,79.23,0,0,1,1316.06,798.07Z" transform="translate(-1083.43 -685.98)"/><path class="cls-13" d="M1087,822.09q-1.5,8.5-3,17a65.56,65.56,0,0,1,2.79-21.15l.27.19C1088.26,819.48,1088,820.79,1087,822.09Z" transform="translate(-1083.43 -685.98)"/><path class="cls-29" d="M1318,803.08a5.45,5.45,0,0,1-2-5A7.88,7.88,0,0,1,1318,803.08Z" transform="translate(-1083.43 -685.98)"/><path class="cls-16" d="M1096.94,789.92c.15,1.82,0,3.46-2.1,4.14Z" transform="translate(-1083.43 -685.98)"/><path class="cls-30" d="M1199,916.1a48.65,48.65,0,0,0,9,9c9.45,11.38,21.64,17.38,36.28,19.06a57.83,57.83,0,0,0,30.29-4.75,8.77,8.77,0,0,1,2.44-.32c-14.71,8.49-30.1,9.23-46,4.07-6.51-1.41-12-4.84-17-9l-13-12c-4.46-4.05-9.33-7.7-12.51-13,.2-.76.54-1.31,1.47-1,.67.66,1.34,1.33,2,2,1.85.32,2.74,1.91,4,3A6.36,6.36,0,0,0,1199,916.1Z" transform="translate(-1083.43 -685.98)"/><path class="cls-31" d="M1209,763.06l-3.09,1.11c-.74.16-1.05-.2-1.09-.89a11.79,11.79,0,0,0,4.13-4.2,134.74,134.74,0,0,0,15-15c2.87-1.8,4.8-4.55,7-7,.9-.38,1.24.19,1.51.89.11,2.31-1.33,3.85-2.7,5.42-1.4,1.38-2.83,2.73-4.19,4.16-.44.49-.91,1-1.38,1.42-1.9,1.88-3.78,3.79-5.65,5.7C1215.27,757.34,1213.12,761.34,1209,763.06Z" transform="translate(-1083.43 -685.98)"/><path class="cls-32" d="M1232,738.12l-1-1c3.12-5.62,6.28-11.22,5.92-18,0-1.66.07-3.31.11-5,2.36,6.47.57,12.71-1,19C1234.86,734.91,1235.76,738.34,1232,738.12Z" transform="translate(-1083.43 -685.98)"/><path class="cls-33" d="M1174,893.09l5,2.94,11,12.08-1,1c-1.32.56-2.25-.25-3.07-1q-6-5.61-11.56-11.56c-.84-.89-2-1.85-1.22-3.41,0-.09.24-.15.37-.14A2,2,0,0,1,1174,893.09Z" transform="translate(-1083.43 -685.98)"/><path class="cls-17" d="M1196,913.12c-2-.11-3.11-1.42-4-3C1195.18,908.65,1195.37,911.17,1196,913.12Z" transform="translate(-1083.43 -685.98)"/><path class="cls-34" d="M1254,874.31l2.7-5.3c5.43-6.27,12-11.34,17.61-17.47,5-4.15,8.47-10,14.47-13a2,2,0,0,1,1.27.56c0,.32,0,.65-.09,1a138,138,0,0,0-15,15,88.94,88.94,0,0,0-12,12C1259.48,868.83,1258.15,873.31,1254,874.31Z" transform="translate(-1083.43 -685.98)"/><path class="cls-35" d="M1174,893.09c-.1,2.87,2.51,3.82,4,5.42,3.51,3.68,7.3,7.09,11,10.6l12,13c-5.55-2.25-8.37-7.7-13-11a2.23,2.23,0,0,1-2.19-.7c-1.16-1.19-2.29-2.42-3.52-3.55-2.1-2-3.31-5.19-7.5-2.28-2.13,1.48-5.82-.13-8.83-.12-16.49,0-33-.1-49.48.1-5.33.07-9.46-1.35-12.18-6.08-.81-5.57-2.1-11.14.57-16.58,2.27,2.28,5,2.81,8.18,2.78,11-.11,21.94,0,32.91-.06,8.94-.05,18-.72,25,6.47Z" transform="translate(-1083.43 -685.98)"/><path class="cls-36" d="M1187,910.09l1,1c-.67.78-.43,2.22-2.18,2.21-22.37-.11-44.76-.51-67.12.08-4.76.13-8.32-.31-11.71-3.29-1.34-1.4-1.57-3.24-2-5a1.91,1.91,0,0,1,2.32-.07c3.83,2.51,8.16,2.5,12.5,2.57,20.12.33,40.24-.29,60.35.09A10.21,10.21,0,0,1,1187,910.09Z" transform="translate(-1083.43 -685.98)"/><path class="cls-37" d="M1087,822.09c0-1.32,0-2.64.07-4a15,15,0,0,0,1.22-2.64c1.25-4.91,3.59-6.85,9.37-6.63,16.91.65,33.87.18,50.81.3,2.34,0,5.78-1.45,6.81,1,.81,1.94-2.74,3.3-4,5.19-.8,1.22-3.24,1.46-2.33,3.74-1.17,4.85-4.44,7.59-9,9,.48-3.61-.52-4.86-4.71-5.38-7.15-.89-14.22-.4-21.32-.56C1104.94,821.94,1096,822.09,1087,822.09Z" transform="translate(-1083.43 -685.98)"/><path class="cls-38" d="M1139.93,828.09c3.27-2.75,6.56-5.46,9-9,2.51-1.13,3.57-4.13,6.33-4.94a8.84,8.84,0,0,1-2.34,3.93c-4,7.16-10.27,12.38-15.93,18.11-1,1-2.06,2.18-3.72,2.2a2.18,2.18,0,0,1-1.3-2.29C1134.79,833.57,1137.89,831.35,1139.93,828.09Z" transform="translate(-1083.43 -685.98)"/><path class="cls-9" d="M1161,806.11c-.25,1.87-1.52,2.95-3,3.9C1158.12,808.06,1159.4,807,1161,806.11Z" transform="translate(-1083.43 -685.98)"/><path class="cls-39" d="M1132,836.1a2,2,0,0,1,1,2c-.28,1.71-1.66,2.65-2.67,3.84q-7.8,8-14.79,16.68c-2.89,4-5.51,8.17-6.81,13-1.6,3.36-1.6,7.3-3.72,10.48-1.93,5.67-1.21,11.34,0,17a2.78,2.78,0,0,1,0,4c-3.38-6.05-1.49-12.66-2.06-19a53.77,53.77,0,0,1,5-19c3-7.6,8.86-13,14-19C1126.15,843.63,1127.77,838.54,1132,836.1Z" transform="translate(-1083.43 -685.98)"/><path class="cls-40" d="M1235,793.15a166.2,166.2,0,0,1-15-14.86c.65-3.33,3.34-2.14,5.23-2.15,21.45-.07,42.89.06,64.33-.15,3.81,0,7.83,1,11.53-.92,1.57,1.34,2,3.34,2.94,5-1,2.56.71,4.81.88,7.26.21,3.15-.9,4.75-4,5.08a50.09,50.09,0,0,1-5.48.18c-14.65,0-29.3,0-44,0C1245.93,792.6,1240.45,792.72,1235,793.15Z" transform="translate(-1083.43 -685.98)"/><path class="cls-41" d="M1209,763.06a51.05,51.05,0,0,1,9-9c1.9-.54,3.71-1.39,5.79-1.24,19.41,1.36,38.82,1,58.24.28a70.63,70.63,0,0,1,11,11c-1.48,1.63-3.44,1-5.19,1q-36,.06-72,0C1213.35,765.1,1210.8,765.32,1209,763.06Z" transform="translate(-1083.43 -685.98)"/><path class="cls-42" d="M1290.08,839.11l-1.08,0c-.56-1-.14-1.84.24-2.72,4.71-4.58,7.24-10.81,11.75-15.55.79.07,1.44.25,1,1.28-.67,1.66-1.33,3.33-2,5C1296.81,831.2,1294.58,836.09,1290.08,839.11Z" transform="translate(-1083.43 -685.98)"/><path class="cls-43" d="M1232,738.12c2.28-.92,2.13-3.76,4-5,.35,2.45,2.26,2,3.84,2,7.3,0,14.59,0,21.88-.15,1.4,0,2.5-.19,3.55.92,4.21,4.44,8.48,8.83,12.72,13.24-1.61,2.44-4.18,2.51-6.66,2.54-13.78.12-27.56.14-41.34,0-2.5,0-5.58.27-6-3.54l1-1c2-.63,3.81-1.55,4-4Z" transform="translate(-1083.43 -685.98)"/><path class="cls-44" d="M1224,748.06c1.07,2.35,3.18,2,5.17,2,14.17,0,28.33,0,42.5,0a30.52,30.52,0,0,0,6.35-1,10.37,10.37,0,0,1,4,4c-2.33,2.28-5.38,1.91-8.17,1.93q-20.24.21-40.47,0c-5.13-.06-10.26-.65-15.39-1A23.76,23.76,0,0,1,1224,748.06Z" transform="translate(-1083.43 -685.98)"/><path class="cls-36" d="M1105,903.1v-4a4.19,4.19,0,0,1,.91-.28c3,5.47,8.18,4.25,12.92,4.27,16.09,0,32.18,0,48.27,0,3.08,0,6.16.34,9.11.51,1.25-1.89-2.92-1.73-1-3.49,1.37-1.29,2.4,0,3.32.94,2.85,3,5.68,6,8.52,9-3.2-1.29-6.57-1-9.88-1q-29.59-.07-59.19,0c-4.75,0-9.35-.3-12.92-4C1105,904.43,1105,903.76,1105,903.1Z" transform="translate(-1083.43 -685.98)"/><path class="cls-45" d="M1302,822.1l-1-1a2.28,2.28,0,0,1-.62-1.39c.35-3.61,2.19-6.85,2.62-10.45.61-3.62,1.27-7.22,1.66-10.87.18-1.62-.4-3.89,2.3-4.25q0,6.48,0,13a24.25,24.25,0,0,0-2,9Z" transform="translate(-1083.43 -685.98)"/><path class="cls-46" d="M1307,794.14c-1.78,3.73-.74,7.91-1.87,11.78-.4,1.36-.39,2.86-1.09,4.17a7.12,7.12,0,0,1-5.15,1.53c-15.66-.06-31.32.34-47-.23L1235,793.15c1.8-2.28,4.35-2.06,6.84-2.06h56.32c6.11,0,6.56-.44,5.55-6.41-.28-1.61-1.36-3.12.27-4.56Z" transform="translate(-1083.43 -685.98)"/><path class="cls-44" d="M1229,743.05c1.6,4.26.31,5.65-4,4A11.44,11.44,0,0,1,1229,743.05Z" transform="translate(-1083.43 -685.98)"/><path class="cls-47" d="M1105,882.09a19.45,19.45,0,0,1,3-11c5.73-1.18,11.5-.21,17.25-.38,6.27-.19,12.55-.07,18.83,0a12.51,12.51,0,0,1,5.34.8c2.47,1.15,3.09,4.91,6.57,4.63a120.24,120.24,0,0,0,15,15c-.93.39-1.94.9-2.67-.19-3.64-5.4-9.39-4.65-14.61-4.73-14.77-.22-29.56-.14-44.34,0C1106.36,886.17,1104.5,885.58,1105,882.09Z" transform="translate(-1083.43 -685.98)"/><path class="cls-48" d="M1251.87,811.39c.19-1.07.52-1.56,1.92-1.54,16.73.15,33.47.18,50.21.24-.25,3.56-1.78,6.74-3,10-1.54,2.9-4.16,3.48-7.15,3.48-7,0-13.93.2-20.88-.06-5-.19-9.5.65-13,4.59A107.89,107.89,0,0,0,1251.87,811.39Z" transform="translate(-1083.43 -685.98)"/><path class="cls-49" d="M1156,876.1c-2.52-.46-5.17-.31-6.62-3.33-.67-1.4-2.76-.64-4.21-.65-10.31,0-20.62,0-30.94,0a13.14,13.14,0,0,1-6.22-1,23.27,23.27,0,0,1,7-13c5.71-.57,11.07,2.16,16.8,1.65,3.14-.28,6.29-.1,9.37-1.09s5.94-.52,7.91,2.44Q1152.52,868.58,1156,876.1Z" transform="translate(-1083.43 -685.98)"/><path class="cls-50" d="M1260,828.1c.67-4.43,3.46-6.05,7.69-6,9,.06,17.93-.07,26.89.07a9.46,9.46,0,0,0,6.42-2.06v1a57.48,57.48,0,0,1-11,16c-3.52,1.64-7.17.5-10.75.43-5.77-.1-11.55.47-17.3-.31C1261.29,834.17,1260.65,831.14,1260,828.1Z" transform="translate(-1083.43 -685.98)"/><path class="cls-51" d="M1149.06,861.08c-3.41-1.79-6.6-1-10.32-.39-7.93,1.21-16.14.94-23.76-2.61a82.7,82.7,0,0,1,15-17c2.47,1.72,5.18,1.57,8,1.22,7.69-1,8.12-.54,8.5,7.44a2.32,2.32,0,0,0,.47,1.35Z" transform="translate(-1083.43 -685.98)"/><path class="cls-52" d="M1261.94,837.2c7.22-2.33,14.62-.93,21.91-.78,1.93,0,4.27-.88,6.14.66l-1,2-14,13c-4.44,1.71-9.35,1.18-13.77,3C1262.2,849.13,1262,843.16,1261.94,837.2Z" transform="translate(-1083.43 -685.98)"/><path class="cls-53" d="M1147,851.09c-.22-.25-.56-.47-.62-.75-1.62-7.62-1.6-7.48-10.09-6.55-2.28.25-6,2.32-6.25-2.71a6.51,6.51,0,0,1,3-3,127.74,127.74,0,0,0,16.39-16.58,35,35,0,0,1,3.58-3.41A68.17,68.17,0,0,0,1147,851.09Z" transform="translate(-1083.43 -685.98)"/><path class="cls-54" d="M1261.23,855.05c3.88-4.29,9-2.8,13.77-3-5.5,6.28-11.26,12.28-18.27,16.92Z" transform="translate(-1083.43 -685.98)"/></svg>